<?xml version="1.0" standalone="no"?>
<!DOCTYPE svg PUBLIC "-//W3C//DTD SVG 20010904//EN"
 "http://www.w3.org/TR/2001/REC-SVG-20010904/DTD/svg10.dtd">
<svg version="1.0" xmlns="http://www.w3.org/2000/svg"
 width="731.000000pt" height="504.000000pt" viewBox="0 0 731.000000 504.000000"
 preserveAspectRatio="xMidYMid meet">

<g transform="translate(0.000000,504.000000) scale(0.100000,-0.100000)"
fill="#000000" stroke="none">
<path d="M0 2520 l0 -2520 3655 0 3655 0 0 2520 0 2520 -3655 0 -3655 0 0
-2520z m1573 1509 c23 -12 75 -45 117 -74 96 -67 297 -190 470 -289 74 -42
209 -122 300 -178 91 -55 194 -118 230 -140 36 -21 106 -64 155 -95 50 -31
182 -112 295 -180 113 -69 228 -140 257 -159 28 -19 53 -34 56 -34 3 0 40 -20
83 -45 125 -71 130 -72 223 -32 63 28 351 191 501 285 14 9 104 64 200 123
165 100 322 197 506 313 45 28 117 73 160 100 44 27 102 64 129 81 28 18 100
62 160 97 61 36 164 99 230 140 67 41 128 77 138 81 26 10 22 -27 -8 -71 l-25
-37 0 -1037 0 -1037 -59 -73 c-77 -97 -213 -227 -281 -270 -103 -66 -71 -63
-785 -63 l-650 0 -58 -34 c-32 -18 -60 -31 -62 -29 -20 19 203 264 295 324
l35 23 235 -10 c129 -6 350 -9 490 -7 254 3 255 3 314 31 82 38 180 141 201
210 13 43 15 156 15 768 0 395 -3 724 -6 733 -11 28 -67 19 -120 -19 -106 -77
-195 -132 -323 -203 -74 -40 -177 -100 -230 -134 -53 -33 -206 -123 -341 -200
-135 -77 -333 -194 -441 -259 -207 -125 -311 -179 -345 -179 -29 0 -162 69
-274 142 -52 34 -169 103 -260 153 -91 50 -214 123 -275 162 -185 118 -606
377 -852 522 -77 46 -113 49 -129 14 -9 -23 -18 -1408 -9 -1481 4 -30 14 -60
23 -68 91 -78 141 -117 177 -134 71 -34 225 -42 655 -32 l385 8 65 -70 c35
-39 81 -87 101 -106 20 -19 53 -55 74 -79 36 -44 36 -45 15 -53 -29 -11 -1313
10 -1375 22 -27 6 -71 22 -98 35 -26 14 -52 23 -58 20 -11 -7 -174 156 -233
234 -39 51 -41 58 -41 120 5 637 4 2040 -1 2105 -4 47 -4 86 0 86 4 0 26 -10
49 -21z m1030 -1308 c137 -97 603 -381 624 -381 2 0 40 -21 84 -47 84 -50 93
-56 232 -141 48 -29 102 -56 120 -59 32 -5 62 8 227 99 161 88 271 148 275
148 2 0 42 22 87 48 46 27 113 65 150 85 71 40 187 116 280 185 31 23 62 42
68 42 17 0 11 -43 -10 -75 -17 -26 -20 -47 -20 -146 0 -98 -3 -118 -17 -131
-10 -9 -85 -50 -168 -93 -374 -194 -590 -308 -714 -378 -172 -97 -190 -101
-290 -51 -72 36 -558 320 -667 390 -29 18 -103 60 -166 93 -87 47 -125 61
-156 61 l-42 0 0 103 c0 57 3 145 6 195 8 109 13 112 97 53z"/>
</g>
</svg>
